<svg width="500" height="194" viewBox="0 0 500 194" fill="none" xmlns="http://www.w3.org/2000/svg">
<path d="M45.6864 160.412C33.3733 160.542 22.2417 157.182 12.6276 149.28C7.21896 144.836 3.67462 138.994 0.498813 132.914C-0.270752 131.429 -0.357463 129.922 1.75613 128.773C7.47909 125.651 13.0395 122.248 18.6215 118.899C20.3016 117.891 20.8435 118.921 21.3746 120.178C28.6259 137.303 46.7269 138.962 58.8232 135.537C63.9933 134.073 67.6461 130.963 68.3397 125.391C69.0118 120.004 66.4971 116.124 61.9014 113.436C55.5823 109.729 48.5587 107.897 41.6326 105.881C33.4709 103.497 25.3308 100.863 18.318 96.072C11.0343 91.0753 6.5361 84.1492 5.1162 74.9469C3.21939 62.6014 6.64449 52.2068 15.3265 43.8609C24.4529 35.0813 36.0722 32.3391 48.5045 33.1303C58.4655 33.7698 67.5919 36.8914 75.4501 43.2322C80.7503 47.5027 84.945 52.6621 87.9908 58.7644C88.5002 59.7833 88.8795 60.3252 87.5247 61.1815C81.6933 64.8884 75.2875 67.6198 69.7271 71.7928C68.8925 72.4215 68.2205 71.8578 67.7111 70.8065C64.6003 64.4548 59.5277 60.3144 53.0785 57.4637C46.0332 54.3529 34.7499 57.0518 30.7069 63.2084C27.7913 67.6523 28.9402 74.4483 33.124 77.6458C37.6113 81.0818 42.9224 82.751 48.1468 84.5936C57.0781 87.7369 66.1611 90.3599 74.7672 94.5329C98.3853 105.99 97.8325 139.785 76.7941 152.803C67.1691 158.775 56.7421 160.715 45.6864 160.412Z" fill="#280847"/>
<path d="M248.006 147.752C248.006 162.352 247.93 176.129 248.071 189.916C248.093 192.495 247.443 193.232 244.852 193.124C239.573 192.907 234.273 192.907 228.995 193.124C226.328 193.232 225.57 192.506 225.58 189.764C225.7 167.815 225.645 145.866 225.645 123.917C225.645 107.139 225.71 90.36 225.58 73.5813C225.559 71.0016 226.198 70.2862 228.778 70.3838C234.403 70.6006 240.04 70.5139 245.665 70.4163C247.388 70.3838 248.158 70.7632 248.028 72.6708C247.865 75.0662 247.984 77.4725 247.984 80.8325C250.748 77.3749 253.274 74.7194 256.536 72.8442C263.332 68.9639 270.779 67.7608 278.334 68.151C288.923 68.7038 298.234 72.7575 305.637 80.5724C316.79 92.3435 320.692 106.304 318.318 122.27C316.411 135.125 310.167 145.281 299.795 152.901C291.514 158.992 282.127 161.008 271.917 160.369C263.777 159.859 256.851 156.987 251.009 151.383C250.087 150.473 249.339 149.367 248.006 147.752ZM272.35 139.016C286.484 139.005 296.651 128.817 296.705 114.618C296.76 99.8982 286.679 89.4495 272.383 89.417C258.271 89.3845 247.984 99.8549 248.028 114.216C248.06 128.762 258.141 139.027 272.35 139.016Z" fill="#280847"/>
<path d="M378.648 123.451C368.643 123.451 358.639 123.516 348.635 123.408C346.066 123.386 345.383 123.874 346.51 126.464C350.087 134.745 356.742 138.593 365.251 139.72C374.215 140.902 382.441 139.254 388.966 132.415C389.92 131.407 390.711 131.71 391.676 132.274C396.337 135.006 400.911 137.889 405.713 140.349C408.184 141.617 407.458 143.113 406.341 144.262C402.168 148.565 397.974 152.803 392.402 155.534C383.308 159.968 373.803 160.889 363.896 160.271C348.743 159.328 336.885 152.673 328.756 139.905C324.453 133.141 321.852 125.695 321.895 117.436C321.928 110.77 321.624 104.049 324.085 97.7412C327.531 88.94 332.669 81.2444 340.657 75.8357C349.188 70.0586 358.856 67.9125 368.936 68.1076C382.983 68.3785 394.895 73.9714 403.252 85.2981C410.948 95.7143 413.582 107.843 412.097 120.806C411.826 123.148 410.644 123.484 408.65 123.473C398.656 123.408 388.652 123.451 378.648 123.451ZM389.649 105.935C388.088 96.1587 380.653 89.4603 370.497 88.4523C358.856 87.2925 349.025 93.2973 345.817 103.41C345.199 105.361 345.448 106.022 347.648 105.968C353.155 105.849 358.672 105.925 364.178 105.925C372.654 105.935 381.13 105.935 389.649 105.935Z" fill="#280847"/>
<path d="M121.114 80.1605C128.008 69.8743 137.915 67.8474 148.244 68.1618C165.576 68.7037 177.206 79.1633 179.504 96.5815C181.758 113.696 180.013 130.973 180.382 148.175C180.447 151.34 181.802 155.578 179.753 157.41C178.008 158.981 173.868 157.897 170.778 157.941C167.44 157.984 164.102 157.811 160.785 157.995C158.53 158.114 157.891 157.388 157.902 155.133C157.999 139.504 157.934 123.863 157.956 108.233C157.967 101.524 155.864 95.8878 150.163 91.8882C140.559 85.1464 122.675 89.8722 121.591 105.198C120.453 121.381 121.234 137.596 121.223 153.8C121.223 157.345 120.312 158.233 116.898 158.027C111.858 157.713 106.785 157.811 101.734 158.006C99.3065 158.103 98.6995 157.388 98.7103 154.982C98.797 128.546 98.7645 102.098 98.7645 75.6623C98.7645 63.3601 98.8296 51.0579 98.7103 38.7666C98.6887 36.3386 99.0572 35.3306 101.821 35.4607C107.327 35.7208 112.855 35.6666 118.372 35.4715C120.746 35.3956 121.179 36.2194 121.169 38.3872C121.071 51.4915 121.125 64.5958 121.125 77.7C121.114 78.2311 121.114 78.7623 121.114 80.1605Z" fill="#280847"/>
<path d="M498.624 70.4704C495.513 74.8818 492.76 78.8705 489.931 82.8051C483.168 92.1916 476.383 101.578 469.543 110.921C468.069 112.937 468.871 114.346 470.118 116.07C479.743 129.391 489.281 142.766 498.841 156.131C499.09 156.488 499.22 156.933 499.686 157.93C495.806 157.93 492.229 157.93 488.652 157.93C487.85 157.93 487.048 157.93 486.235 157.93C473.521 157.93 473.521 157.93 466.281 147.6C463.018 142.94 459.734 138.3 456.591 133.564C455.312 131.624 454.661 131.992 453.502 133.661C448.722 140.49 443.681 147.145 439.032 154.06C437.113 156.911 435.086 158.222 431.531 158.027C425.57 157.702 419.586 157.951 413.603 157.919C412.715 157.919 411.522 158.32 411.035 157.485C410.438 156.456 411.511 155.545 412.075 154.83C419.944 144.836 427.152 134.355 434.577 124.036C437.113 120.514 441.644 117.132 441.449 113.306C441.264 109.707 437.146 106.271 434.642 102.846C427.401 92.9503 420.714 82.6533 413.007 73.1042C412.487 72.4647 411.826 71.8469 412.27 71.0015C412.736 70.1344 413.701 70.492 414.449 70.492C421.342 70.4704 428.236 70.5679 435.13 70.427C437.232 70.3837 438.24 71.5109 439.259 72.92C443.909 79.4233 448.678 85.84 453.122 92.4734C454.813 94.988 455.864 94.2076 457.1 92.4517C461.707 85.97 466.259 79.445 470.822 72.9308C471.689 71.6952 472.481 70.4704 474.247 70.4704C482.171 70.4812 490.083 70.4704 498.624 70.4704Z" fill="#280847"/>
<path d="M213.549 114.162C213.549 127.722 213.473 141.27 213.625 154.83C213.657 157.496 212.866 158.103 210.352 158.017C204.845 157.822 199.328 157.887 193.811 157.995C191.828 158.038 191.015 157.648 191.026 155.394C191.102 127.939 191.102 100.484 191.026 73.0285C191.015 70.8065 191.741 70.3621 193.768 70.4055C199.513 70.5247 205.257 70.5572 210.991 70.3946C213.224 70.3296 213.603 71.1317 213.592 73.1477C213.517 86.8156 213.549 100.494 213.549 114.162Z" fill="#280847"/>
<path d="M176.111 26.2692C177.076 10.3577 188.782 -1.67357 205.485 0.190732C217.538 1.53476 227.152 10.8237 228.485 24.0906C229.168 30.8433 226.512 36.7288 222.892 42.2025C217.288 50.6677 210.232 57.9948 203.902 65.8856C202.884 67.1646 201.854 67.3163 200.835 66.0048C193.226 56.098 183.883 47.4702 178.539 35.8834C177.043 32.61 176.751 29.0765 176.111 26.2692ZM202.396 47.3618C214.427 47.3943 224.377 37.8019 224.453 26.0958C224.529 14.0104 214.85 4.10359 202.797 3.93017C191.069 3.75674 180.924 13.5118 180.87 25.0011C180.805 37.6826 190.104 47.3293 202.396 47.3618Z" fill="#280847"/>
<path d="M221.819 25.8899C221.776 36.5337 212.942 45.2482 202.428 45.0206C191.719 44.793 183.297 36.1327 183.406 25.4563C183.514 14.7366 192.12 6.3039 202.862 6.42312C213.571 6.54235 221.852 15.0401 221.819 25.8899ZM204.108 40.4574C216.725 34.8753 216.746 34.8428 216.519 22.1504C216.519 22.0312 216.508 21.9228 216.519 21.8036C216.681 20.0477 216.432 19.1372 214.351 20.2753C211.555 21.8036 208.628 23.1368 205.712 24.4374C204.488 24.9794 204.054 25.7273 204.076 27.0605C204.152 31.396 204.108 35.7208 204.108 40.4574ZM201.106 40.8151C201.106 36.5445 201.106 32.8918 201.106 29.2499C201.106 24.6759 200.846 24.3616 195.914 23.4186C195.914 25.7923 195.914 28.1118 195.914 30.4747C192.738 29.6727 192.814 27.3856 193.085 25.207C193.508 21.8469 192.196 20.0368 188.576 19.7442C188.576 23.8847 188.619 28.0035 188.554 32.1114C188.533 33.3362 189.031 33.9757 190.039 34.5285C193.529 36.4578 196.987 38.4739 201.106 40.8151ZM214.958 16.6659C212.541 15.8096 211.067 13.4684 209.181 14.3139C205.387 16.0047 201.886 18.3243 197.702 20.698C200.293 21.2183 201.669 23.2885 203.859 22.2046C207.317 20.4921 210.774 18.7578 214.958 16.6659ZM190.397 16.8285C192.532 17.5547 193.605 19.5599 195.741 18.3676C199.263 16.395 202.775 14.4006 206.352 12.3954C204.065 9.64229 201.875 9.91326 199.35 11.5825C196.673 13.3492 193.833 14.8341 190.397 16.8285Z" fill="#280847"/>
</svg>
